/* XPM */
/* $Id: petris-icon-16x16.xpm,v 1.1 1999/02/21 19:23:32 root Exp $ */
static char * petris_icon_16x16_xpm[] = {
"16 16 6 1",
"  c None",
"! c red",
"# c #00AF00",
"$ c maroon3",
"% c black",
"& c blue",
"                ",
"                ",
"        $$      ",
"        $$      ",
"      $$$$$$    ",
"      $$$$$$    ",
"                ",
"                ",
"    ##          ",
"    ##          ",
"    ##  %%      ",
"    ##  %%      ",
"!!!!##%%%%&&    ",
"!!!!##%%%%&&    ",
"!!!!##%%  &&&&&&",
"!!!!##%%  &&&&&&",
};
